<svg xmlns="http://www.w3.org/2000/svg" width="24" height="24" viewBox="0 0 24 24"><defs/><g fill="none"><path fill="#009EFF" fill-rule="nonzero" d="M11.75 17v4c0 .414.336.75.75.75s.75-.336.75-.75v-4c0-.414-.336-.75-.75-.75s-.75.336-.75.75zM11.53 19.97c-.293-.293-.768-.293-1.061 0-.293.293-.293.768 0 1.061l1.5 1.5c.293.293.768.293 1.061 0l1.5-1.5c.293-.293.293-.768 0-1.061-.293-.293-.768-.293-1.061 0l-.97.97-.97-.97z"/><path fill="#FFCE00" fill-rule="nonzero" d="M17.199 4.603l-1.175 2.837c-.383.924-1.769.35-1.386-.574l1.175-2.837c.383-.924 1.769-.35 1.386.574zm5.267 6.078l-2.837 1.175c-.924.383-1.498-1.003-.574-1.386l2.837-1.175c.924-.383 1.498 1.003.574 1.386zm-17.101 1.176l-2.837-1.175c-.924-.383-.35-1.769.574-1.386l2.837 1.175c.924.383.35 1.769-.574 1.386zm3.813-7.829l1.175 2.837c.383.924-1.003 1.498-1.386.574l-1.175-2.837c-.383-.924 1.003-1.498 1.386-.574z"/><path fill="#FFCE00" d="M7.5 14c0-2.761 2.239-5 5-5s5 2.239 5 5h-10z"/><rect width="19" height="1.5" x="3" y="14" fill="#000" opacity=".3" rx=".75"/></g></svg>